# xmcd CD database file
#
# Track frame offsets:
#	150
#	43357
#	71715
#	98195
#	122720
#	145650
#
# Disc length: 2312 seconds
#
# Revision: 0
# Processed by: cddbd v1.5.2PL0 Copyright (c) Steve Scherf et al.
# Submitted via: CDex 1.70beta2
#
DISCID=57090606
DTITLE=Jazz for Japan - Jazz for Japan [Disc1]
DYEAR=2011
DGENRE=Jazz
TTITLE0=Maiden Voyage
TTITLE1=Sugar
TTITLE2=So What
TTITLE3=Sophisticated Lady
TTITLE4=Footprints
TTITLE5=Work Song
EXTD=YEAR: 2011
EXTT0=
EXTT1=
EXTT2=
EXTT3=
EXTT4=
EXTT5=
PLAYORDER=
